<?xml version="1.0" encoding="iso-8859-1"?>
<!-- Uploaded to: SVG Repo, www.svgrepo.com, Generator: SVG Repo Mixer Tools -->
<!DOCTYPE svg PUBLIC "-//W3C//DTD SVG 1.1//EN" "http://www.w3.org/Graphics/SVG/1.1/DTD/svg11.dtd">
<svg height="800px" width="800px" version="1.1" id="Capa_1" xmlns="http://www.w3.org/2000/svg" xmlns:xlink="http://www.w3.org/1999/xlink" 
	 viewBox="0 0 227.797 227.797" xml:space="preserve">
<g>
	<path style="fill:#1D1D1B;" d="M204.543,42.904H67.051c-12.822,0-23.254,10.432-23.254,23.254v13.107H20.503
		c-4.142,0-7.5,3.357-7.5,7.5s3.358,7.5,7.5,7.5h23.294v5.128H7.5c-4.142,0-7.5,3.357-7.5,7.5s3.358,7.5,7.5,7.5h36.297v6.474
		H20.503c-4.142,0-7.5,3.357-7.5,7.5s3.358,7.5,7.5,7.5h23.294v6.563c0,11.728,8.729,21.45,20.029,23.025
		c1.591,10.977,11.059,19.438,22.47,19.438c11.332,0,20.75-8.343,22.438-19.209h54.125c1.688,10.866,11.107,19.209,22.438,19.209
		c11.411,0,20.879-8.461,22.47-19.438c11.301-1.575,20.029-11.298,20.029-23.025V66.158
		C227.797,53.336,217.365,42.904,204.543,42.904z M200.91,57.904l-65.113,50.299L70.684,57.904H200.91z M86.296,169.893
		c-4.25,0-7.708-3.458-7.708-7.709s3.458-7.709,7.708-7.709c4.251,0,7.709,3.458,7.709,7.709S90.547,169.893,86.296,169.893z
		 M185.297,169.893c-4.25,0-7.708-3.458-7.708-7.709s3.458-7.709,7.708-7.709c4.251,0,7.709,3.458,7.709,7.709
		S189.548,169.893,185.297,169.893z M204.858,150.667c-3.955-6.692-11.24-11.193-19.561-11.193c-8.327,0-15.617,4.508-19.57,11.209
		h-59.862c-3.953-6.701-11.243-11.209-19.57-11.209c-8.32,0-15.605,4.501-19.56,11.193c-4.405-0.167-7.939-3.793-7.939-8.238
		v-28.036h12.291c4.142,0,7.5-3.357,7.5-7.5s-3.358-7.5-7.5-7.5H58.797V67.676l72.415,55.94c1.35,1.043,2.968,1.564,4.585,1.564
		s3.235-0.521,4.585-1.564l72.415-55.94v74.753C212.797,146.874,209.263,150.5,204.858,150.667z"/>
</g>
</svg>