<?xml version="1.0" encoding="utf-8"?><!-- Uploaded to: SVG Repo, www.svgrepo.com, Generator: SVG Repo Mixer Tools -->
<svg width="800px" height="800px" viewBox="0 -0.5 25 25" fill="none" xmlns="http://www.w3.org/2000/svg">
<path d="M4.76942 9.63841C4.67576 10.0419 4.92693 10.4449 5.33041 10.5386C5.7339 10.6322 6.13692 10.3811 6.23058 9.97759L4.76942 9.63841ZM6.5 5.5V4.75C6.15112 4.75 5.84831 4.99057 5.76942 5.33041L6.5 5.5ZM10.5 6.25C10.9142 6.25 11.25 5.91421 11.25 5.5C11.25 5.08579 10.9142 4.75 10.5 4.75V6.25ZM6.25 9.808C6.25 9.39379 5.91421 9.058 5.5 9.058C5.08579 9.058 4.75 9.39379 4.75 9.808H6.25ZM5.5 19.5H4.75C4.75 19.9142 5.08579 20.25 5.5 20.25V19.5ZM19.5 19.5V20.25C19.9142 20.25 20.25 19.9142 20.25 19.5H19.5ZM20.25 9.808C20.25 9.39379 19.9142 9.058 19.5 9.058C19.0858 9.058 18.75 9.39379 18.75 9.808H20.25ZM5.5 9.058C5.08579 9.058 4.75 9.39379 4.75 9.808C4.75 10.2222 5.08579 10.558 5.5 10.558V9.058ZM10.5 10.558C10.9142 10.558 11.25 10.2222 11.25 9.808C11.25 9.39379 10.9142 9.058 10.5 9.058V10.558ZM10.5 9.058C10.0858 9.058 9.75 9.39379 9.75 9.808C9.75 10.2222 10.0858 10.558 10.5 10.558V9.058ZM14.5 10.558C14.9142 10.558 15.25 10.2222 15.25 9.808C15.25 9.39379 14.9142 9.058 14.5 9.058V10.558ZM9.75 9.808C9.75 10.2222 10.0858 10.558 10.5 10.558C10.9142 10.558 11.25 10.2222 11.25 9.808H9.75ZM11.25 5.5C11.25 5.08579 10.9142 4.75 10.5 4.75C10.0858 4.75 9.75 5.08579 9.75 5.5H11.25ZM11.25 9.808C11.25 9.39379 10.9142 9.058 10.5 9.058C10.0858 9.058 9.75 9.39379 9.75 9.808H11.25ZM10.5 13.5H9.75C9.75 13.7599 9.88459 14.0013 10.1057 14.138C10.3268 14.2746 10.6029 14.2871 10.8354 14.1708L10.5 13.5ZM12.5 12.5L12.8354 11.8292C12.6243 11.7236 12.3757 11.7236 12.1646 11.8292L12.5 12.5ZM14.5 13.5L14.1646 14.1708C14.3971 14.2871 14.6732 14.2746 14.8943 14.138C15.1154 14.0013 15.25 13.7599 15.25 13.5H14.5ZM15.25 9.808C15.25 9.39379 14.9142 9.058 14.5 9.058C14.0858 9.058 13.75 9.39379 13.75 9.808H15.25ZM10.5 4.75C10.0858 4.75 9.75 5.08579 9.75 5.5C9.75 5.91421 10.0858 6.25 10.5 6.25V4.75ZM14.5 6.25C14.9142 6.25 15.25 5.91421 15.25 5.5C15.25 5.08579 14.9142 4.75 14.5 4.75V6.25ZM18.7694 9.97759C18.8631 10.3811 19.2661 10.6322 19.6696 10.5386C20.0731 10.4449 20.3242 10.0419 20.2306 9.63841L18.7694 9.97759ZM18.5 5.5L19.2306 5.33041C19.1517 4.99057 18.8489 4.75 18.5 4.75V5.5ZM14.5 4.75C14.0858 4.75 13.75 5.08579 13.75 5.5C13.75 5.91421 14.0858 6.25 14.5 6.25V4.75ZM19.5 10.558C19.9142 10.558 20.25 10.2222 20.25 9.808C20.25 9.39379 19.9142 9.058 19.5 9.058V10.558ZM14.5 9.058C14.0858 9.058 13.75 9.39379 13.75 9.808C13.75 10.2222 14.0858 10.558 14.5 10.558V9.058ZM13.75 9.808C13.75 10.2222 14.0858 10.558 14.5 10.558C14.9142 10.558 15.25 10.2222 15.25 9.808H13.75ZM15.25 5.5C15.25 5.08579 14.9142 4.75 14.5 4.75C14.0858 4.75 13.75 5.08579 13.75 5.5H15.25ZM6.23058 9.97759L7.23058 5.66959L5.76942 5.33041L4.76942 9.63841L6.23058 9.97759ZM6.5 6.25H10.5V4.75H6.5V6.25ZM4.75 9.808V19.5H6.25V9.808H4.75ZM5.5 20.25H19.5V18.75H5.5V20.25ZM20.25 19.5V9.808H18.75V19.5H20.25ZM5.5 10.558H10.5V9.058H5.5V10.558ZM10.5 10.558H14.5V9.058H10.5V10.558ZM11.25 9.808V5.5H9.75V9.808H11.25ZM9.75 9.808V13.5H11.25V9.808H9.75ZM10.8354 14.1708L12.8354 13.1708L12.1646 11.8292L10.1646 12.8292L10.8354 14.1708ZM12.1646 13.1708L14.1646 14.1708L14.8354 12.8292L12.8354 11.8292L12.1646 13.1708ZM15.25 13.5V9.808H13.75V13.5H15.25ZM10.5 6.25H14.5V4.75H10.5V6.25ZM20.2306 9.63841L19.2306 5.33041L17.7694 5.66959L18.7694 9.97759L20.2306 9.63841ZM18.5 4.75H14.5V6.25H18.5V4.75ZM19.5 9.058H14.5V10.558H19.5V9.058ZM15.25 9.808V5.5H13.75V9.808H15.25Z" fill="#000000"/>
</svg>