{
  "accessors": [
    {
      "bufferView": 2,
      "componentType": 5126,
      "count": 1974,
      "max": [
        7.135015487670898,
        7.318927764892578,
        24.728282928466797
      ],
      "min": [
        -7.390584945678711,
        -7.206672668457031,
        -19.456201553344727
      ],
      "type": "VEC3",
      "byteOffset": 0
    },
    {
      "bufferView": 2,
      "byteOffset": 23688,
      "componentType": 5126,
      "count": 1974,
      "max": [
        1,
        1,
        1
      ],
      "min": [
        -1,
        -1,
        -1
      ],
      "type": "VEC3"
    },
    {
      "bufferView": 1,
      "componentType": 5126,
      "count": 1974,
      "max": [
        0.8574904799461365,
        0.9799999594688416
      ],
      "min": [
        0.019999999552965164,
        0.019999999552965164
      ],
      "type": "VEC2",
      "byteOffset": 0
    },
    {
      "bufferView": 0,
      "componentType": 5125,
      "count": 9708,
      "type": "SCALAR",
      "byteOffset": 0
    },
    {
      "bufferView": 2,
      "byteOffset": 47376,
      "componentType": 5126,
      "count": 1233,
      "max": [
        6.169294357299805,
        6.113837718963623,
        23.94209098815918
      ],
      "min": [
        -6.169293403625488,
        -6.113838195800781,
        -0.2625580132007599
      ],
      "type": "VEC3"
    },
    {
      "bufferView": 2,
      "byteOffset": 62172,
      "componentType": 5126,
      "count": 1233,
      "max": [
        1,
        1,
        0.9807762503623962
      ],
      "min": [
        -0.9999994039535522,
        -1,
        -0.000004001517481810879
      ],
      "type": "VEC3"
    },
    {
      "bufferView": 1,
      "byteOffset": 15792,
      "componentType": 5126,
      "count": 1233,
      "max": [
        1,
        1
      ],
      "min": [
        0,
        2.9802322387695312e-8
      ],
      "type": "VEC2"
    },
    {
      "bufferView": 0,
      "byteOffset": 38832,
      "componentType": 5125,
      "count": 7224,
      "type": "SCALAR"
    },
    {
      "bufferView": 2,
      "byteOffset": 76968,
      "componentType": 5126,
      "count": 534,
      "max": [
        11.075560569763184,
        11.063015937805176,
        44.04882049560547
      ],
      "min": [
        -11.025409698486328,
        -11.06301498413086,
        0
      ],
      "type": "VEC3"
    },
    {
      "bufferView": 2,
      "byteOffset": 83376,
      "componentType": 5126,
      "count": 534,
      "max": [
        1,
        0.998867392539978,
        1
      ],
      "min": [
        -1,
        -0.9988673329353333,
        -1
      ],
      "type": "VEC3"
    },
    {
      "bufferView": 1,
      "byteOffset": 25656,
      "componentType": 5126,
      "count": 534,
      "max": [
        0.9638313055038452,
        0.9799999594688416
      ],
      "min": [
        0.019999999552965164,
        0.019999999552965164
      ],
      "type": "VEC2"
    },
    {
      "bufferView": 0,
      "byteOffset": 67728,
      "componentType": 5125,
      "count": 1584,
      "type": "SCALAR"
    }
  ],
  "asset": {
    "extras": {
      "author": "riach (https://sketchfab.com/riach)",
      "license": "CC-BY-4.0 (http://creativecommons.org/licenses/by/4.0/)",
      "source": "https://sketchfab.com/3d-models/lipstick-3a22a4359df74375a297d962926f0359",
      "title": "Lipstick"
    },
    "generator": "Sketchfab-12.74.0",
    "version": "2.0"
  },
  "bufferViews": [
    {
      "buffer": 0,
      "byteLength": 74064,
      "name": "floatBufferViews",
      "target": 34963,
      "byteOffset": 0
    },
    {
      "buffer": 0,
      "byteLength": 29928,
      "byteOffset": 74064,
      "byteStride": 8,
      "name": "floatBufferViews",
      "target": 34962
    },
    {
      "buffer": 0,
      "byteLength": 89784,
      "byteOffset": 103992,
      "byteStride": 12,
      "name": "floatBufferViews",
      "target": 34962
    },
    {
      "buffer": 0,
      "byteOffset": 193776,
      "byteLength": 12087
    },
    {
      "buffer": 0,
      "byteOffset": 205864,
      "byteLength": 222
    },
    {
      "buffer": 0,
      "byteOffset": 206088,
      "byteLength": 2386
    }
  ],
  "buffers": [
    {
      "name": "lipstick1",
      "byteLength": 208480,
      "uri": "data:application/octet-stream;base64,"
    }
  ],
  "images": [
    {
      "bufferView": 3,
      "mimeType": "image/png"
    },
    {
      "bufferView": 4,
      "mimeType": "image/png"
    },
    {
      "bufferView": 5,
      "mimeType": "image/png"
    }
  ],
  "materials": [
    {
      "doubleSided": true,
      "name": "Material_31",
      "pbrMetallicRoughness": {
        "baseColorTexture": {
          "index": 0,
          "texCoord": 0
        },
        "metallicFactor": 0.6583687503420098,
        "roughnessFactor": 0.09234414996139084,
        "baseColorFactor": [
          1,
          1,
          1,
          1
        ]
      },
      "emissiveFactor": [
        0,
        0,
        0
      ],
      "alphaMode": "OPAQUE"
    },
    {
      "doubleSided": true,
      "name": "Material_29",
      "pbrMetallicRoughness": {
        "baseColorTexture": {
          "index": 1,
          "texCoord": 0
        },
        "metallicFactor": 0,
        "roughnessFactor": 0.33555107649465854,
        "baseColorFactor": [
          1,
          1,
          1,
          1
        ]
      },
      "emissiveFactor": [
        0,
        0,
        0
      ],
      "alphaMode": "OPAQUE"
    },
    {
      "doubleSided": true,
      "name": "Material_30",
      "pbrMetallicRoughness": {
        "baseColorTexture": {
          "index": 2,
          "texCoord": 0
        },
        "metallicFactor": 0,
        "roughnessFactor": 0.1105846694513859,
        "baseColorFactor": [
          1,
          1,
          1,
          1
        ]
      },
      "emissiveFactor": [
        0,
        0,
        0
      ],
      "alphaMode": "OPAQUE"
    }
  ],
  "meshes": [
    {
      "name": "lipstick_holder_Material #31_0",
      "primitives": [
        {
          "attributes": {
            "NORMAL": 1,
            "POSITION": 0,
            "TEXCOORD_0": 2
          },
          "indices": 3,
          "material": 0,
          "mode": 4
        }
      ]
    },
    {
      "name": "lipstick_red_Material #29_0",
      "primitives": [
        {
          "attributes": {
            "NORMAL": 5,
            "POSITION": 4,
            "TEXCOORD_0": 6
          },
          "indices": 7,
          "material": 1,
          "mode": 4
        }
      ]
    },
    {
      "name": "lipstick_cap_Material #30_0",
      "primitives": [
        {
          "attributes": {
            "NORMAL": 9,
            "POSITION": 8,
            "TEXCOORD_0": 10
          },
          "indices": 11,
          "material": 2,
          "mode": 4
        }
      ]
    }
  ],
  "nodes": [
    {
      "children": [
        1
      ],
      "matrix": [
        1,
        0,
        0,
        0,
        0,
        2.220446049250313e-16,
        -1,
        0,
        0,
        1,
        2.220446049250313e-16,
        0,
        0,
        0,
        0,
        1
      ],
      "name": "Sketchfab_model"
    },
    {
      "children": [
        2
      ],
      "matrix": [
        0.02539999969303608,
        0,
        0,
        0,
        0,
        0,
        0.02539999969303608,
        0,
        0,
        -0.02539999969303608,
        0,
        0,
        0,
        0,
        0,
        1
      ],
      "name": "2481f0db15194837be2101157a9d067d.fbx"
    },
    {
      "children": [
        3,
        5,
        7
      ],
      "name": "RootNode"
    },
    {
      "children": [
        4
      ],
      "matrix": [
        1.343125343322754,
        0,
        0,
        0,
        0,
        2.9823373622289793e-16,
        -1.343125343322754,
        0,
        0,
        1.3964678049087524,
        3.1007814203148963e-16,
        0,
        -129.3710479736328,
        -3.6811447143554688,
        10.691421508789062,
        1
      ],
      "name": "lipstick_holder"
    },
    {
      "mesh": 0,
      "name": "lipstick_holder_Material #31_0"
    },
    {
      "children": [
        6
      ],
      "matrix": [
        1.0835011005401611,
        0,
        0,
        0,
        0,
        2.405855738052767e-16,
        -1.0835011005401611,
        0,
        0,
        1.0835011005401611,
        2.405855738052767e-16,
        0,
        -129.33880615234375,
        29.462491989135742,
        10.661563873291016,
        1
      ],
      "name": "lipstick_red"
    },
    {
      "mesh": 1,
      "name": "lipstick_red_Material #29_0"
    },
    {
      "children": [
        8
      ],
      "matrix": [
        1,
        0,
        0,
        0,
        0,
        2.220446049250313e-16,
        -1,
        0,
        0,
        1,
        2.220446049250313e-16,
        0,
        -129.57679748535156,
        -30.028865814208984,
        49.368675231933594,
        1
      ],
      "name": "lipstick_cap"
    },
    {
      "mesh": 2,
      "name": "lipstick_cap_Material #30_0"
    }
  ],
  "samplers": [
    {
      "magFilter": 9729,
      "minFilter": 9987,
      "wrapS": 10497,
      "wrapT": 10497
    }
  ],
  "scene": 0,
  "scenes": [
    {
      "name": "Sketchfab_Scene",
      "nodes": [
        0
      ]
    }
  ],
  "textures": [
    {
      "sampler": 0,
      "source": 0
    },
    {
      "sampler": 0,
      "source": 1
    },
    {
      "sampler": 0,
      "source": 2
    }
  ]
}
