{
  "accessors": [
    {
      "bufferView": 2,
      "componentType": 5126,
      "count": 1496,
      "max": [
        0.012511000037193298,
        0.010173000395298004,
        0.008082999847829342
      ],
      "min": [
        -0.012511000037193298,
        -0.012411000207066536,
        -0.00006800000119255856
      ],
      "type": "VEC3",
      "byteOffset": 0
    },
    {
      "bufferView": 2,
      "byteOffset": 17952,
      "componentType": 5126,
      "count": 1496,
      "max": [
        0.9984557628631592,
        0.9945038557052612,
        0.9999969005584717
      ],
      "min": [
        -0.9984557628631592,
        -0.995976984500885,
        -0.9969271421432495
      ],
      "type": "VEC3"
    },
    {
      "bufferView": 3,
      "componentType": 5126,
      "count": 1496,
      "max": [
        0.9987856149673462,
        0.9972572922706604,
        0.9804287552833557,
        1
      ],
      "min": [
        -0.9987856149673462,
        -0.9762486815452576,
        -0.9993377923965454,
        -1
      ],
      "type": "VEC4",
      "byteOffset": 0
    },
    {
      "bufferView": 1,
      "componentType": 5126,
      "count": 1496,
      "max": [
        0.9030510187149048,
        0.9996230006217957
      ],
      "min": [
        0.0003769999893847853,
        0.0003769999893847853
      ],
      "type": "VEC2",
      "byteOffset": 0
    },
    {
      "bufferView": 0,
      "componentType": 5125,
      "count": 4488,
      "type": "SCALAR",
      "byteOffset": 0
    },
    {
      "bufferView": 2,
      "byteOffset": 35904,
      "componentType": 5126,
      "count": 2352,
      "max": [
        0.014507999643683434,
        0.0004720000142697245,
        0.008597999811172485
      ],
      "min": [
        -0.014166000299155712,
        -0.014503000304102898,
        -0.0009710000013001263
      ],
      "type": "VEC3"
    },
    {
      "bufferView": 2,
      "byteOffset": 64128,
      "componentType": 5126,
      "count": 2352,
      "max": [
        0.9976086616516113,
        0.9973939061164856,
        0.9476437568664551
      ],
      "min": [
        -0.994544267654419,
        -0.7005768418312073,
        -0.999472975730896
      ],
      "type": "VEC3"
    },
    {
      "bufferView": 3,
      "byteOffset": 23936,
      "componentType": 5126,
      "count": 2352,
      "max": [
        0.9950481653213501,
        0.9999743103981018,
        0.9869670867919922,
        1
      ],
      "min": [
        -0.999191403388977,
        -0.9981145858764648,
        -0.9941698312759399,
        1
      ],
      "type": "VEC4"
    },
    {
      "bufferView": 1,
      "byteOffset": 11968,
      "componentType": 5126,
      "count": 2352,
      "max": [
        1.0001319646835327,
        0.9997850060462952
      ],
      "min": [
        0.00029600001289509237,
        0.3270600140094757
      ],
      "type": "VEC2"
    },
    {
      "bufferView": 0,
      "byteOffset": 17952,
      "componentType": 5125,
      "count": 3528,
      "type": "SCALAR"
    }
  ],
  "asset": {
    "extras": {
      "author": "Benz (https://sketchfab.com/benitaS)",
      "license": "CC-BY-4.0 (http://creativecommons.org/licenses/by/4.0/)",
      "source": "https://sketchfab.com/3d-models/fuzzy-slippers-f6dcfa2215324d8d9b96216f06490d52",
      "title": "Fuzzy Slippers"
    },
    "generator": "Sketchfab-14.60.0",
    "version": "2.0"
  },
  "bufferViews": [
    {
      "buffer": 0,
      "byteLength": 32064,
      "name": "floatBufferViews",
      "target": 34963,
      "byteOffset": 0
    },
    {
      "buffer": 0,
      "byteLength": 30784,
      "byteOffset": 32064,
      "byteStride": 8,
      "name": "floatBufferViews",
      "target": 34962
    },
    {
      "buffer": 0,
      "byteLength": 92352,
      "byteOffset": 62848,
      "byteStride": 12,
      "name": "floatBufferViews",
      "target": 34962
    },
    {
      "buffer": 0,
      "byteLength": 61568,
      "byteOffset": 155200,
      "byteStride": 16,
      "name": "floatBufferViews",
      "target": 34962
    },
    {
      "buffer": 0,
      "byteOffset": 216768,
      "byteLength": 76322
    },
    {
      "buffer": 0,
      "byteOffset": 293096,
      "byteLength": 245451
    },
    {
      "buffer": 0,
      "byteOffset": 538552,
      "byteLength": 1869798
    },
    {
      "buffer": 0,
      "byteOffset": 2408352,
      "byteLength": 17515
    },
    {
      "buffer": 0,
      "byteOffset": 2425872,
      "byteLength": 97
    },
    {
      "buffer": 0,
      "byteOffset": 2425976,
      "byteLength": 4316
    }
  ],
  "buffers": [
    {
      "name": "slippers1",
      "byteLength": 2430296,
      "uri": "data:application/octet-stream;base64,"
    }
  ],
  "images": [
    {
      "bufferView": 4,
      "mimeType": "image/jpeg"
    },
    {
      "bufferView": 5,
      "mimeType": "image/png"
    },
    {
      "bufferView": 6,
      "mimeType": "image/png"
    },
    {
      "bufferView": 7,
      "mimeType": "image/png"
    },
    {
      "bufferView": 8,
      "mimeType": "image/png"
    },
    {
      "bufferView": 9,
      "mimeType": "image/png"
    }
  ],
  "materials": [
    {
      "doubleSided": true,
      "name": "Shoe",
      "normalTexture": {
        "index": 2,
        "scale": 0.13239832721561753,
        "texCoord": 0
      },
      "pbrMetallicRoughness": {
        "baseColorTexture": {
          "index": 0,
          "texCoord": 0
        },
        "metallicRoughnessTexture": {
          "index": 1,
          "texCoord": 0
        },
        "baseColorFactor": [
          1,
          1,
          1,
          1
        ],
        "metallicFactor": 1,
        "roughnessFactor": 1
      },
      "emissiveFactor": [
        0,
        0,
        0
      ],
      "alphaMode": "OPAQUE"
    },
    {
      "alphaMode": "BLEND",
      "doubleSided": true,
      "name": "Fuzz",
      "normalTexture": {
        "index": 5,
        "texCoord": 0
      },
      "pbrMetallicRoughness": {
        "baseColorTexture": {
          "index": 3,
          "texCoord": 0
        },
        "metallicRoughnessTexture": {
          "index": 4,
          "texCoord": 0
        },
        "baseColorFactor": [
          1,
          1,
          1,
          1
        ],
        "metallicFactor": 1,
        "roughnessFactor": 1
      },
      "emissiveFactor": [
        0,
        0,
        0
      ]
    }
  ],
  "meshes": [
    {
      "name": "defaultMaterial",
      "primitives": [
        {
          "attributes": {
            "NORMAL": 1,
            "POSITION": 0,
            "TANGENT": 2,
            "TEXCOORD_0": 3
          },
          "indices": 4,
          "material": 0,
          "mode": 4
        }
      ]
    },
    {
      "name": "defaultMaterial",
      "primitives": [
        {
          "attributes": {
            "NORMAL": 6,
            "POSITION": 5,
            "TANGENT": 7,
            "TEXCOORD_0": 8
          },
          "indices": 9,
          "material": 1,
          "mode": 4
        }
      ]
    }
  ],
  "nodes": [
    {
      "children": [
        1
      ],
      "matrix": [
        0.012500000186264515,
        0,
        0,
        0,
        0,
        2.775557602921922e-18,
        -0.012500000186264515,
        0,
        0,
        0.012500000186264515,
        2.775557602921922e-18,
        0,
        0,
        0,
        0,
        1
      ],
      "name": "Sketchfab_model"
    },
    {
      "children": [
        2
      ],
      "matrix": [
        1,
        0,
        0,
        0,
        0,
        -4.371139006309477e-8,
        0.999999999999999,
        0,
        0,
        -0.999999999999999,
        -4.371139006309477e-8,
        0,
        0,
        0,
        0,
        1
      ],
      "name": "Collada visual scene group"
    },
    {
      "children": [
        3,
        4
      ],
      "matrix": [
        1000,
        0,
        0,
        0,
        0,
        -0.000163,
        -1000,
        0,
        0,
        1000,
        -0.000163,
        0,
        0,
        0,
        0,
        1
      ],
      "name": "Slipper"
    },
    {
      "mesh": 0,
      "name": "defaultMaterial"
    },
    {
      "mesh": 1,
      "name": "defaultMaterial"
    }
  ],
  "samplers": [
    {
      "magFilter": 9729,
      "minFilter": 9987,
      "wrapS": 10497,
      "wrapT": 10497
    }
  ],
  "scene": 0,
  "scenes": [
    {
      "name": "Sketchfab_Scene",
      "nodes": [
        0
      ]
    }
  ],
  "textures": [
    {
      "sampler": 0,
      "source": 0
    },
    {
      "sampler": 0,
      "source": 1
    },
    {
      "sampler": 0,
      "source": 2
    },
    {
      "sampler": 0,
      "source": 3
    },
    {
      "sampler": 0,
      "source": 4
    },
    {
      "sampler": 0,
      "source": 5
    }
  ]
}
