{
  "accessors": [
    {
      "bufferView": 2,
      "componentType": 5126,
      "count": 178,
      "max": [
        1.0160574913024902,
        0.1680755913257599,
        -4.4491777420043945
      ],
      "min": [
        -1.0160574913024902,
        -0.030000001192092896,
        -5.802873134613037
      ],
      "type": "VEC3",
      "byteOffset": 0
    },
    {
      "bufferView": 2,
      "byteOffset": 2136,
      "componentType": 5126,
      "count": 178,
      "max": [
        1,
        1,
        1
      ],
      "min": [
        -1,
        -1,
        -1
      ],
      "type": "VEC3"
    },
    {
      "bufferView": 3,
      "componentType": 5126,
      "count": 178,
      "max": [
        0.9999961256980896,
        0.9999999403953552,
        0.9976149201393127,
        1
      ],
      "min": [
        -0.12068537622690201,
        -0.9999992251396179,
        -0.9999943375587463,
        1
      ],
      "type": "VEC4",
      "byteOffset": 0
    },
    {
      "bufferView": 1,
      "componentType": 5126,
      "count": 178,
      "max": [
        0.9875094294548035,
        0.9669214487075806
      ],
      "min": [
        0.029215211048722267,
        0.06212587654590607
      ],
      "type": "VEC2",
      "byteOffset": 0
    },
    {
      "bufferView": 0,
      "componentType": 5125,
      "count": 432,
      "type": "SCALAR",
      "byteOffset": 0
    },
    {
      "bufferView": 2,
      "byteOffset": 4272,
      "componentType": 5126,
      "count": 1608,
      "max": [
        0.6697513461112976,
        0.2610853910446167,
        -4.571084976196289
      ],
      "min": [
        -0.6661784648895264,
        0.21733100712299347,
        -5.644506931304932
      ],
      "type": "VEC3"
    },
    {
      "bufferView": 2,
      "byteOffset": 23568,
      "componentType": 5126,
      "count": 1608,
      "max": [
        1,
        1,
        0.9749294519424438
      ],
      "min": [
        -1,
        -0.11197682470083237,
        -0.9749294519424438
      ],
      "type": "VEC3"
    },
    {
      "bufferView": 3,
      "byteOffset": 2848,
      "componentType": 5126,
      "count": 1608,
      "max": [
        0.9889923930168152,
        0.9860564470291138,
        0.9981338381767273,
        1
      ],
      "min": [
        -0.6283624768257141,
        -0.9860751628875732,
        -0.3915795683860779,
        1
      ],
      "type": "VEC4"
    },
    {
      "bufferView": 1,
      "byteOffset": 1424,
      "componentType": 5126,
      "count": 1608,
      "max": [
        0.2950141429901123,
        0.09633660316467285
      ],
      "min": [
        0.2523731291294098,
        0.07229256629943848
      ],
      "type": "VEC2"
    },
    {
      "bufferView": 0,
      "byteOffset": 1728,
      "componentType": 5125,
      "count": 7560,
      "type": "SCALAR"
    },
    {
      "bufferView": 2,
      "byteOffset": 42864,
      "componentType": 5126,
      "count": 460,
      "max": [
        0.07804971933364868,
        0.5101370811462402,
        -6.502702236175537
      ],
      "min": [
        -0.07804977893829346,
        0.3540376126766205,
        -7.282406806945801
      ],
      "type": "VEC3"
    },
    {
      "bufferView": 2,
      "byteOffset": 48384,
      "componentType": 5126,
      "count": 460,
      "max": [
        1,
        1,
        1
      ],
      "min": [
        -1,
        -1,
        -1
      ],
      "type": "VEC3"
    },
    {
      "bufferView": 3,
      "byteOffset": 28576,
      "componentType": 5126,
      "count": 460,
      "max": [
        0.9996268153190613,
        0.9999871850013733,
        0.7496494054794312,
        1
      ],
      "min": [
        -0.9999755620956421,
        -0.9998794794082642,
        -0.5931904315948486,
        1
      ],
      "type": "VEC4"
    },
    {
      "bufferView": 1,
      "byteOffset": 14288,
      "componentType": 5126,
      "count": 460,
      "max": [
        0.3681332767009735,
        0.8781405687332153
      ],
      "min": [
        0.31645146012306213,
        0.5751183032989502
      ],
      "type": "VEC2"
    },
    {
      "bufferView": 0,
      "byteOffset": 31968,
      "componentType": 5125,
      "count": 2400,
      "type": "SCALAR"
    },
    {
      "bufferView": 2,
      "byteOffset": 53904,
      "componentType": 5126,
      "count": 756,
      "max": [
        0.7177606821060181,
        0.22585591673851013,
        -4.412693023681641
      ],
      "min": [
        -0.7161766290664673,
        0.14297467470169067,
        -5.839358329772949
      ],
      "type": "VEC3"
    },
    {
      "bufferView": 2,
      "byteOffset": 62976,
      "componentType": 5126,
      "count": 756,
      "max": [
        1,
        1,
        1
      ],
      "min": [
        -1,
        -1,
        -1
      ],
      "type": "VEC3"
    },
    {
      "bufferView": 3,
      "byteOffset": 35936,
      "componentType": 5126,
      "count": 756,
      "max": [
        0.9999866485595703,
        0.9999871850013733,
        0.676860511302948,
        1
      ],
      "min": [
        -0.9999903440475464,
        -0.9999960064888,
        -0.6704233288764954,
        1
      ],
      "type": "VEC4"
    },
    {
      "bufferView": 1,
      "byteOffset": 17968,
      "componentType": 5126,
      "count": 756,
      "max": [
        0.8478085398674011,
        0.9008135795593262
      ],
      "min": [
        0.35584959387779236,
        0.06480821967124939
      ],
      "type": "VEC2"
    },
    {
      "bufferView": 0,
      "byteOffset": 41568,
      "componentType": 5125,
      "count": 2592,
      "type": "SCALAR"
    },
    {
      "bufferView": 2,
      "byteOffset": 72048,
      "componentType": 5126,
      "count": 460,
      "max": [
        0.07804971933364868,
        0.5101370811462402,
        -6.502702236175537
      ],
      "min": [
        -0.07804977893829346,
        0.3540376126766205,
        -7.282406806945801
      ],
      "type": "VEC3"
    },
    {
      "bufferView": 2,
      "byteOffset": 77568,
      "componentType": 5126,
      "count": 460,
      "max": [
        1,
        1,
        1
      ],
      "min": [
        -1,
        -1,
        -1
      ],
      "type": "VEC3"
    },
    {
      "bufferView": 3,
      "byteOffset": 48032,
      "componentType": 5126,
      "count": 460,
      "max": [
        0.9996274709701538,
        0.9999872446060181,
        0.7496640086174011,
        1
      ],
      "min": [
        -0.9999755620956421,
        -0.9998794794082642,
        -0.5931844115257263,
        1
      ],
      "type": "VEC4"
    },
    {
      "bufferView": 1,
      "byteOffset": 24016,
      "componentType": 5126,
      "count": 460,
      "max": [
        0.3681333065032959,
        0.8781405687332153
      ],
      "min": [
        0.31645146012306213,
        0.5751181840896606
      ],
      "type": "VEC2"
    },
    {
      "bufferView": 0,
      "byteOffset": 51936,
      "componentType": 5125,
      "count": 2400,
      "type": "SCALAR"
    }
  ],
  "asset": {
    "extras": {
      "author": "Saturniccc (https://sketchfab.com/Saturniccc)",
      "license": "CC-BY-4.0 (http://creativecommons.org/licenses/by/4.0/)",
      "source": "https://sketchfab.com/3d-models/kid-s-toy-xylophone-b4ce27325fc9432ba62d9339447da09a",
      "title": "Kid´s Toy - Xylophone"
    },
    "generator": "Sketchfab-15.45.0",
    "version": "2.0"
  },
  "bufferViews": [
    {
      "buffer": 0,
      "byteLength": 61536,
      "name": "floatBufferViews",
      "target": 34963,
      "byteOffset": 0
    },
    {
      "buffer": 0,
      "byteLength": 27696,
      "byteOffset": 61536,
      "byteStride": 8,
      "name": "floatBufferViews",
      "target": 34962
    },
    {
      "buffer": 0,
      "byteLength": 83088,
      "byteOffset": 89232,
      "byteStride": 12,
      "name": "floatBufferViews",
      "target": 34962
    },
    {
      "buffer": 0,
      "byteLength": 55392,
      "byteOffset": 172320,
      "byteStride": 16,
      "name": "floatBufferViews",
      "target": 34962
    },
    {
      "buffer": 0,
      "byteOffset": 227712,
      "byteLength": 430295
    },
    {
      "buffer": 0,
      "byteOffset": 658008,
      "byteLength": 122196
    },
    {
      "buffer": 0,
      "byteOffset": 780208,
      "byteLength": 2077
    },
    {
      "buffer": 0,
      "byteOffset": 782288,
      "byteLength": 222
    },
    {
      "buffer": 0,
      "byteOffset": 782512,
      "byteLength": 4453
    },
    {
      "buffer": 0,
      "byteOffset": 786968,
      "byteLength": 222
    },
    {
      "buffer": 0,
      "byteOffset": 787192,
      "byteLength": 24317
    },
    {
      "buffer": 0,
      "byteOffset": 811512,
      "byteLength": 14294
    },
    {
      "buffer": 0,
      "byteOffset": 825808,
      "byteLength": 24280
    },
    {
      "buffer": 0,
      "byteOffset": 850088,
      "byteLength": 3024
    },
    {
      "buffer": 0,
      "byteOffset": 853112,
      "byteLength": 245971
    }
  ],
  "buffers": [
    {
      "name": "xylophone1",
      "byteLength": 1099088,
      "uri": "data:application/octet-stream;base64,"
    }
  ],
  "images": [
    {
      "bufferView": 4,
      "mimeType": "image/png"
    },
    {
      "bufferView": 5,
      "mimeType": "image/png"
    },
    {
      "bufferView": 6,
      "mimeType": "image/png"
    },
    {
      "bufferView": 7,
      "mimeType": "image/png"
    },
    {
      "bufferView": 8,
      "mimeType": "image/png"
    },
    {
      "bufferView": 9,
      "mimeType": "image/png"
    },
    {
      "bufferView": 10,
      "mimeType": "image/png"
    },
    {
      "bufferView": 11,
      "mimeType": "image/png"
    },
    {
      "bufferView": 12,
      "mimeType": "image/png"
    },
    {
      "bufferView": 13,
      "mimeType": "image/png"
    },
    {
      "bufferView": 14,
      "mimeType": "image/png"
    }
  ],
  "materials": [
    {
      "doubleSided": true,
      "name": "Frame1",
      "normalTexture": {
        "index": 2,
        "texCoord": 0
      },
      "occlusionTexture": {
        "index": 1,
        "texCoord": 0
      },
      "pbrMetallicRoughness": {
        "baseColorTexture": {
          "index": 0,
          "texCoord": 0
        },
        "metallicRoughnessTexture": {
          "index": 1,
          "texCoord": 0
        },
        "baseColorFactor": [
          1,
          1,
          1,
          1
        ],
        "metallicFactor": 1,
        "roughnessFactor": 1
      },
      "emissiveFactor": [
        0,
        0,
        0
      ],
      "alphaMode": "OPAQUE"
    },
    {
      "doubleSided": true,
      "name": "Nails1",
      "normalTexture": {
        "index": 5,
        "texCoord": 0
      },
      "occlusionTexture": {
        "index": 4,
        "texCoord": 0
      },
      "pbrMetallicRoughness": {
        "baseColorTexture": {
          "index": 3,
          "texCoord": 0
        },
        "metallicRoughnessTexture": {
          "index": 4,
          "texCoord": 0
        },
        "roughnessFactor": 0.9466665041264888,
        "baseColorFactor": [
          1,
          1,
          1,
          1
        ],
        "metallicFactor": 1
      },
      "emissiveFactor": [
        0,
        0,
        0
      ],
      "alphaMode": "OPAQUE"
    },
    {
      "doubleSided": true,
      "name": "Mallet1",
      "normalTexture": {
        "index": 8,
        "texCoord": 0
      },
      "occlusionTexture": {
        "index": 7,
        "texCoord": 0
      },
      "pbrMetallicRoughness": {
        "baseColorTexture": {
          "index": 6,
          "texCoord": 0
        },
        "metallicRoughnessTexture": {
          "index": 7,
          "texCoord": 0
        },
        "roughnessFactor": 0,
        "baseColorFactor": [
          1,
          1,
          1,
          1
        ],
        "metallicFactor": 1
      },
      "emissiveFactor": [
        0,
        0,
        0
      ],
      "alphaMode": "OPAQUE"
    },
    {
      "doubleSided": true,
      "name": "Bars",
      "normalTexture": {
        "index": 2,
        "texCoord": 0
      },
      "occlusionTexture": {
        "index": 10,
        "texCoord": 0
      },
      "pbrMetallicRoughness": {
        "baseColorTexture": {
          "index": 9,
          "texCoord": 0
        },
        "metallicRoughnessTexture": {
          "index": 10,
          "texCoord": 0
        },
        "baseColorFactor": [
          1,
          1,
          1,
          1
        ],
        "metallicFactor": 1,
        "roughnessFactor": 1
      },
      "emissiveFactor": [
        0,
        0,
        0
      ],
      "alphaMode": "OPAQUE"
    }
  ],
  "meshes": [
    {
      "name": "Frame_Frame1_0",
      "primitives": [
        {
          "attributes": {
            "NORMAL": 1,
            "POSITION": 0,
            "TANGENT": 2,
            "TEXCOORD_0": 3
          },
          "indices": 4,
          "material": 0,
          "mode": 4
        }
      ]
    },
    {
      "name": "Nails_Nails1_0",
      "primitives": [
        {
          "attributes": {
            "NORMAL": 6,
            "POSITION": 5,
            "TANGENT": 7,
            "TEXCOORD_0": 8
          },
          "indices": 9,
          "material": 1,
          "mode": 4
        }
      ]
    },
    {
      "name": "Mallet_Mallet1_0",
      "primitives": [
        {
          "attributes": {
            "NORMAL": 11,
            "POSITION": 10,
            "TANGENT": 12,
            "TEXCOORD_0": 13
          },
          "indices": 14,
          "material": 2,
          "mode": 4
        }
      ]
    },
    {
      "name": "ToneBars_Bars_0",
      "primitives": [
        {
          "attributes": {
            "NORMAL": 16,
            "POSITION": 15,
            "TANGENT": 17,
            "TEXCOORD_0": 18
          },
          "indices": 19,
          "material": 3,
          "mode": 4
        }
      ]
    },
    {
      "name": "Mallet2_Mallet1_0",
      "primitives": [
        {
          "attributes": {
            "NORMAL": 21,
            "POSITION": 20,
            "TANGENT": 22,
            "TEXCOORD_0": 23
          },
          "indices": 24,
          "material": 2,
          "mode": 4
        }
      ]
    }
  ],
  "nodes": [
    {
      "children": [
        1
      ],
      "matrix": [
        1,
        0,
        0,
        0,
        0,
        2.220446049250313e-16,
        -1,
        0,
        0,
        1,
        2.220446049250313e-16,
        0,
        0,
        0,
        0,
        1
      ],
      "name": "Sketchfab_model"
    },
    {
      "children": [
        2
      ],
      "matrix": [
        0.009999999776482582,
        0,
        0,
        0,
        0,
        0,
        0.009999999776482582,
        0,
        0,
        -0.009999999776482582,
        0,
        0,
        0,
        0,
        0,
        1
      ],
      "name": "44a7942b14df474c9a2a3efed85dc84a.fbx"
    },
    {
      "children": [
        3
      ],
      "name": "RootNode"
    },
    {
      "children": [
        4,
        6,
        8,
        10,
        12
      ],
      "matrix": [
        1,
        0,
        0,
        0,
        0,
        1,
        0,
        0,
        0,
        0,
        1,
        0,
        -0.4180290400981903,
        0.01924147829413414,
        5.126025676727295,
        1
      ],
      "name": "Xylophone"
    },
    {
      "children": [
        5
      ],
      "name": "Frame"
    },
    {
      "mesh": 0,
      "name": "Frame_Frame1_0"
    },
    {
      "children": [
        7
      ],
      "name": "Nails"
    },
    {
      "mesh": 1,
      "name": "Nails_Nails1_0"
    },
    {
      "children": [
        9
      ],
      "matrix": [
        1.4269684553146362,
        0,
        0,
        0,
        0,
        1.4269684553146362,
        0,
        0,
        0,
        0,
        1.4269684553146362,
        0,
        1.3419162034988403,
        -0.5325930118560791,
        4.584202289581299,
        1
      ],
      "name": "Mallet"
    },
    {
      "mesh": 2,
      "name": "Mallet_Mallet1_0"
    },
    {
      "children": [
        11
      ],
      "name": "ToneBars"
    },
    {
      "mesh": 3,
      "name": "ToneBars_Bars_0"
    },
    {
      "children": [
        13
      ],
      "matrix": [
        1.4269684553146362,
        0,
        0,
        0,
        0,
        1.4269684553146362,
        0,
        0,
        0,
        0,
        1.4269684553146362,
        0,
        1.7407410144805908,
        -0.5325930118560791,
        4.584202289581299,
        1
      ],
      "name": "Mallet2"
    },
    {
      "mesh": 4,
      "name": "Mallet2_Mallet1_0"
    }
  ],
  "samplers": [
    {
      "magFilter": 9729,
      "minFilter": 9987,
      "wrapS": 10497,
      "wrapT": 10497
    }
  ],
  "scene": 0,
  "scenes": [
    {
      "name": "Sketchfab_Scene",
      "nodes": [
        0
      ]
    }
  ],
  "textures": [
    {
      "sampler": 0,
      "source": 0
    },
    {
      "sampler": 0,
      "source": 1
    },
    {
      "sampler": 0,
      "source": 2
    },
    {
      "sampler": 0,
      "source": 3
    },
    {
      "sampler": 0,
      "source": 4
    },
    {
      "sampler": 0,
      "source": 5
    },
    {
      "sampler": 0,
      "source": 6
    },
    {
      "sampler": 0,
      "source": 7
    },
    {
      "sampler": 0,
      "source": 8
    },
    {
      "sampler": 0,
      "source": 9
    },
    {
      "sampler": 0,
      "source": 10
    }
  ]
}
